<svg xmlns="http://www.w3.org/2000/svg" width="1600" height="560" viewBox="0 0 1600 560">
  <defs>
    <linearGradient id="bg" x1="0" y1="0" x2="1" y2="1">
      <stop offset="0%" stop-color="#07111f"/>
      <stop offset="55%" stop-color="#0a1526"/>
      <stop offset="100%" stop-color="#0d1930"/>
    </linearGradient>
    <radialGradient id="glow1" cx="78%" cy="40%" r="52%">
      <stop offset="0%" stop-color="#1ad7ff" stop-opacity="0.18"/>
      <stop offset="55%" stop-color="#3769ff" stop-opacity="0.07"/>
      <stop offset="100%" stop-color="#07111f" stop-opacity="0"/>
    </radialGradient>
    <radialGradient id="glow2" cx="16%" cy="15%" r="45%">
      <stop offset="0%" stop-color="#6d7cff" stop-opacity="0.12"/>
      <stop offset="100%" stop-color="#07111f" stop-opacity="0"/>
    </radialGradient>
    <linearGradient id="accent" x1="0" y1="0" x2="1" y2="0">
      <stop offset="0%" stop-color="#57e6ff"/>
      <stop offset="100%" stop-color="#7c8cff"/>
    </linearGradient>
    <linearGradient id="lineGrad" x1="0" y1="0" x2="1" y2="1">
      <stop offset="0%" stop-color="#43ddff" stop-opacity="0.85"/>
      <stop offset="100%" stop-color="#6d7cff" stop-opacity="0.25"/>
    </linearGradient>
    <filter id="tinyGlow" x="-100%" y="-100%" width="300%" height="300%">
      <feGaussianBlur stdDeviation="3" result="blur"/>
      <feMerge>
        <feMergeNode in="blur"/>
        <feMergeNode in="SourceGraphic"/>
      </feMerge>
    </filter>
  </defs>
  <rect width="1600" height="560" rx="30" fill="url(#bg)"/>
  <rect width="1600" height="560" rx="30" fill="url(#glow1)"/>
  <rect width="1600" height="560" rx="30" fill="url(#glow2)"/>
  <g opacity="0.075" stroke="#9cb8d8" stroke-width="1">
    <line x1="0" y1="0" x2="0" y2="560"/><line x1="80" y1="0" x2="80" y2="560"/><line x1="160" y1="0" x2="160" y2="560"/><line x1="240" y1="0" x2="240" y2="560"/><line x1="320" y1="0" x2="320" y2="560"/><line x1="400" y1="0" x2="400" y2="560"/><line x1="480" y1="0" x2="480" y2="560"/><line x1="560" y1="0" x2="560" y2="560"/><line x1="640" y1="0" x2="640" y2="560"/><line x1="720" y1="0" x2="720" y2="560"/><line x1="800" y1="0" x2="800" y2="560"/><line x1="880" y1="0" x2="880" y2="560"/><line x1="960" y1="0" x2="960" y2="560"/><line x1="1040" y1="0" x2="1040" y2="560"/><line x1="1120" y1="0" x2="1120" y2="560"/><line x1="1200" y1="0" x2="1200" y2="560"/><line x1="1280" y1="0" x2="1280" y2="560"/><line x1="1360" y1="0" x2="1360" y2="560"/><line x1="1440" y1="0" x2="1440" y2="560"/><line x1="1520" y1="0" x2="1520" y2="560"/><line x1="1600" y1="0" x2="1600" y2="560"/>
    <line x1="0" y1="0" x2="1600" y2="0"/><line x1="0" y1="80" x2="1600" y2="80"/><line x1="0" y1="160" x2="1600" y2="160"/><line x1="0" y1="240" x2="1600" y2="240"/><line x1="0" y1="320" x2="1600" y2="320"/><line x1="0" y1="400" x2="1600" y2="400"/><line x1="0" y1="480" x2="1600" y2="480"/><line x1="0" y1="560" x2="1600" y2="560"/>
  </g>
  <g fill="none" stroke="#62dffb" stroke-opacity="0.12" stroke-width="1.4">
    <ellipse cx="1255" cy="270" rx="300" ry="185"/>
    <ellipse cx="1255" cy="270" rx="230" ry="185"/>
    <ellipse cx="1255" cy="270" rx="150" ry="185"/>
    <path d="M955 270 C1080 165 1435 165 1555 270"/>
    <path d="M955 270 C1080 375 1435 375 1555 270"/>
  </g>
  <g stroke="url(#lineGrad)" stroke-width="2" fill="none" stroke-linecap="round">
    <path d="M1085 207 C1140 185 1180 172 1238 184"/>
    <path d="M1238 184 C1305 195 1355 218 1408 248"/>
    <path d="M1085 207 C1135 245 1185 270 1250 286"/>
    <path d="M1250 286 C1318 305 1374 306 1433 290"/>
    <path d="M1250 286 C1293 339 1342 366 1402 372"/>
    <path d="M1181 354 C1210 324 1228 306 1250 286"/>
    <path d="M1085 207 C1059 274 1085 326 1181 354"/>
  </g>
  <g>
    <circle cx="1085" cy="207" r="8" fill="#0c1f32" stroke="#5ee8ff" stroke-width="2"/>
    <circle cx="1238" cy="184" r="7" fill="#0c1f32" stroke="#77b8ff" stroke-width="2"/>
    <circle cx="1408" cy="248" r="9" fill="#0c1f32" stroke="#7e8cff" stroke-width="2"/>
    <circle cx="1250" cy="286" r="11" fill="#0d2438" stroke="#66e5ff" stroke-width="2.5" filter="url(#tinyGlow)"/>
    <circle cx="1433" cy="290" r="6" fill="#0c1f32" stroke="#74b8ff" stroke-width="2"/>
    <circle cx="1402" cy="372" r="8" fill="#0c1f32" stroke="#7e8cff" stroke-width="2"/>
    <circle cx="1181" cy="354" r="7" fill="#0c1f32" stroke="#68ddff" stroke-width="2"/>
  </g>
  <g transform="translate(1190,225)">
    <rect x="0" y="0" width="270" height="104" rx="16" fill="#0a1424" fill-opacity="0.78" stroke="#7ee8ff" stroke-opacity="0.18"/>
    <circle cx="20" cy="18" r="4" fill="#50e3c2" opacity="0.9"/>
    <circle cx="34" cy="18" r="4" fill="#6d7cff" opacity="0.8"/>
    <circle cx="48" cy="18" r="4" fill="#2b9cff" opacity="0.7"/>
    <text x="20" y="50" fill="#7ce8ff" font-size="15" font-family="ui-monospace, SFMono-Regular, Menlo, Consolas, monospace">SELECT</text>
    <text x="79" y="50" fill="#dfe8f5" font-size="15" font-family="ui-monospace, SFMono-Regular, Menlo, Consolas, monospace">metric, evidence</text>
    <text x="20" y="75" fill="#7ce8ff" font-size="15" font-family="ui-monospace, SFMono-Regular, Menlo, Consolas, monospace">FROM</text>
    <text x="70" y="75" fill="#dfe8f5" font-size="15" font-family="ui-monospace, SFMono-Regular, Menlo, Consolas, monospace">enterprise_data</text>
  </g>
  <g transform="translate(115,92)">
    <circle cx="62" cy="62" r="58" fill="#0c1b2f" stroke="#79e8ff" stroke-opacity="0.35" stroke-width="2"/>
    <circle cx="62" cy="62" r="44" fill="none" stroke="#7194ff" stroke-opacity="0.22" stroke-width="1.5"/>
    <path d="M62 17 L95 98 H83 L73 73 H51 L41 98 H29 Z" fill="url(#accent)"/>
    <path d="M56 61 H69 L62 43 Z" fill="#07111f"/>
    <path d="M18 62 H33 M91 62 H106 M62 18 V33 M62 91 V106" stroke="#8cefff" stroke-opacity="0.7" stroke-width="2" stroke-linecap="round"/>
    <circle cx="62" cy="62" r="4" fill="#d9fbff" filter="url(#tinyGlow)"/>
  </g>
  <text x="115" y="290" fill="#f5f9ff" font-size="76" font-weight="700" letter-spacing="-2.2" font-family="Inter, ui-sans-serif, system-ui, -apple-system, BlinkMacSystemFont, Segoe UI, sans-serif">Atlas<tspan fill="url(#accent)">SQL</tspan></text>
  <text x="118" y="337" fill="#a8b8cf" font-size="24" font-weight="500" letter-spacing="0.2" font-family="Inter, ui-sans-serif, system-ui, -apple-system, BlinkMacSystemFont, Segoe UI, sans-serif">Enterprise-grade NL2SQL Data Intelligence Platform</text>
  <text x="118" y="383" fill="#71869f" font-size="18" font-weight="400" font-family="Inter, ui-sans-serif, system-ui, -apple-system, BlinkMacSystemFont, Segoe UI, sans-serif">Ask in language. Query with evidence.</text>
  <g transform="translate(116,424)" font-family="Inter, ui-sans-serif, system-ui, sans-serif" font-size="14" font-weight="600">
    <g><rect x="0" y="0" width="142" height="34" rx="17" fill="#0f2235" stroke="#59dfff" stroke-opacity="0.22"/><text x="71" y="22" text-anchor="middle" fill="#aeefff">Schema Linking</text></g>
    <g transform="translate(154,0)"><rect x="0" y="0" width="154" height="34" rx="17" fill="#101f38" stroke="#778dff" stroke-opacity="0.22"/><text x="77" y="22" text-anchor="middle" fill="#c0c8ff">Semantic Layer</text></g>
    <g transform="translate(320,0)"><rect x="0" y="0" width="116" height="34" rx="17" fill="#0f2235" stroke="#59dfff" stroke-opacity="0.22"/><text x="58" y="22" text-anchor="middle" fill="#aeefff">Governance</text></g>
    <g transform="translate(448,0)"><rect x="0" y="0" width="170" height="34" rx="17" fill="#101f38" stroke="#778dff" stroke-opacity="0.22"/><text x="85" y="22" text-anchor="middle" fill="#c0c8ff">Benchmark-driven</text></g>
  </g>
  <rect x="115" y="503" width="280" height="3" rx="1.5" fill="url(#accent)" opacity="0.75"/>
</svg>